<?xml version="1.0" encoding="utf-8"?>
<!-- Generator: Adobe Illustrator 25.0.0, SVG Export Plug-In . SVG Version: 6.00 Build 0)  -->
<svg version="1.1" id="Layer_1" xmlns="http://www.w3.org/2000/svg" xmlns:xlink="http://www.w3.org/1999/xlink" x="0px" y="0px"
	 viewBox="0 0 562.63 308.19" style="enable-background:new 0 0 562.63 308.19;" xml:space="preserve">
<style type="text/css">
	.st0{fill:#1D76BB;}
	.st1{fill:#65308F;}
</style>
<g>
	<g>
		<path class="st0" d="M133.33,148.35c23.48-16.2,46.18-34.59,68.08-55.25l-13.07-11.79c-45.29,42.2-81.27,60.1-112.74,66.25
			c40.16-22.8,78.99-53.19,115.21-98.34l28.84,25.96c17.27-17.69,34.01-36.89,50.18-57.68c37.46,48.75,128.61,95.99,218.28,143.27
			c-66.24-27.46-128.49-41.38-216.03-106.04C236.74,98.65,186.77,125.52,133.33,148.35z"/>
		<path class="st1" d="M130.85,166.54c12.41,1.98,24.85,3.06,37.17,3.09c12.33,0.02,24.52-1.14,36.57-3.44
			c12.05-2.35,24-5.71,36.16-9.26c6.11-1.74,12.24-3.52,18.51-5.16c6.25-1.62,12.62-3.06,19.05-4.28
			c12.89-2.37,26.13-3.44,39.24-2.94c13.12,0.44,26.05,2.54,38.62,5.53c12.52,3.28,24.7,7.45,36.41,12.67
			c-12.66-2.08-25.13-4.31-37.66-5.52c-12.5-1.29-24.98-1.65-37.3-1.06c-12.33,0.64-24.49,2.31-36.53,5.06
			c-6.02,1.41-12.03,2.87-18.04,4.63c-6.02,1.65-12.09,3.47-18.2,5.25c-6.16,1.72-12.33,3.51-18.67,5.02
			c-6.31,1.53-12.76,2.82-19.25,3.84c-13.03,1.93-26.36,2.4-39.44,1.22c-13.1-1.13-25.89-3.95-38.27-7.63
			c-12.33-3.92-24.25-8.78-35.68-14.57C106.07,161.72,118.4,164.67,130.85,166.54z"/>
	</g>
	<g>
		<path class="st1" d="M69.7,246.54l28.79-35.24H70.82v-11.45h43.35v9.78l-27.44,35.24h27.76v11.45H69.7V246.54z"/>
		<path class="st1" d="M141.21,257.12c-3.13,0-5.98-0.57-8.55-1.7c-2.57-1.13-4.8-2.68-6.68-4.66c-1.88-1.97-3.34-4.25-4.37-6.83
			c-1.03-2.58-1.55-5.32-1.55-8.21c0-3.9,0.9-7.45,2.7-10.66c1.8-3.21,4.31-5.79,7.52-7.74c3.21-1.95,6.88-2.92,11.02-2.92
			c4.19,0,7.83,0.99,10.94,2.96c3.1,1.98,5.51,4.56,7.24,7.74c1.72,3.19,2.59,6.62,2.59,10.31c0,0.53-0.01,1.04-0.04,1.54
			c-0.03,0.5-0.07,0.88-0.12,1.15h-34.44c0.21,2.67,0.97,5.05,2.27,7.12c1.3,2.07,2.98,3.7,5.05,4.88c2.07,1.18,4.29,1.77,6.68,1.77
			c2.55,0,4.94-0.64,7.2-1.91c2.25-1.27,3.8-2.94,4.65-5.01l6.04,1.67c-0.9,2.02-2.24,3.82-4.02,5.41
			c-1.78,1.59-3.87,2.84-6.28,3.74C146.63,256.67,144.02,257.12,141.21,257.12z M127.21,233.26h28.32
			c-0.21-2.67-0.98-5.03-2.31-7.08c-1.33-2.04-3.02-3.64-5.09-4.8c-2.07-1.15-4.35-1.73-6.84-1.73c-2.44,0-4.69,0.58-6.76,1.73
			c-2.07,1.15-3.75,2.75-5.05,4.8C128.18,228.23,127.42,230.59,127.21,233.26z"/>
		<path class="st1" d="M205.87,256.33h-7v-23.02c0-4.36-0.68-7.56-2.03-9.58c-1.35-2.02-3.41-3.04-6.16-3.04
			c-1.91,0-3.81,0.47-5.69,1.42c-1.88,0.94-3.55,2.21-5.01,3.81c-1.46,1.6-2.51,3.45-3.14,5.54v24.87h-7v-41.28h6.36v8.92
			c1.11-1.95,2.55-3.63,4.3-5.05c1.75-1.42,3.74-2.53,5.97-3.32c2.23-0.79,4.56-1.18,7-1.18c2.39,0,4.39,0.44,6.01,1.3
			c1.62,0.87,2.89,2.08,3.82,3.63c0.93,1.55,1.59,3.38,1.99,5.49c0.4,2.11,0.6,4.39,0.6,6.87V256.33z"/>
		<path class="st1" d="M216.77,207.01v-8.75h7v8.75H216.77z M216.77,256.33v-41.52h7v41.52H216.77z"/>
		<path class="st1" d="M256.54,254.5c-0.58,0.27-1.38,0.61-2.39,1.03c-1.01,0.43-2.17,0.8-3.5,1.11c-1.33,0.32-2.73,0.48-4.22,0.48
			c-1.7,0-3.26-0.31-4.69-0.92c-1.43-0.61-2.57-1.56-3.42-2.86c-0.85-1.3-1.27-2.93-1.27-4.89v-27.92h-5.65v-5.49h5.65v-13.84h7
			v13.84h9.31v5.49h-9.31v25.77c0.11,1.49,0.61,2.59,1.51,3.3c0.9,0.72,1.96,1.07,3.18,1.07c1.38,0,2.65-0.24,3.82-0.72
			c1.17-0.48,1.94-0.82,2.31-1.03L256.54,254.5z"/>
		<path class="st1" d="M299.1,256.33h-7v-23.02c0-4.2-0.76-7.36-2.27-9.46c-1.51-2.1-3.67-3.15-6.48-3.15
			c-1.8,0-3.62,0.47-5.45,1.42c-1.83,0.94-3.43,2.21-4.81,3.81c-1.38,1.6-2.39,3.45-3.02,5.54v24.87h-7v-58.06h7v25.7
			c1.64-2.95,3.88-5.28,6.72-6.99c2.84-1.71,5.9-2.57,9.19-2.57c2.49,0,4.57,0.44,6.24,1.3c1.67,0.87,3.01,2.09,4.02,3.67
			c1.01,1.58,1.74,3.41,2.19,5.49c0.45,2.08,0.68,4.35,0.68,6.83V256.33z"/>
	</g>
	<g>
		<polygon class="st0" points="322.62,207.75 319.27,207.75 319.27,256.9 322.62,256.9 326.17,256.9 350.84,256.9 350.84,250.34
			326.17,250.34 326.17,235.77 347.13,235.77 347.13,229.21 326.17,229.21 326.17,214.31 350.84,214.31 350.84,207.75
			326.17,207.75 		"/>
		<polygon class="st0" points="372.04,246.86 363.45,221.81 356.25,221.81 369.44,256.9 374.64,256.9 387.82,221.81 380.62,221.81
					"/>
		<path class="st0" d="M415.17,223.5c-2.07-1.46-4.58-2.2-7.5-2.2c-3.11,0-5.77,0.64-7.98,1.93c-2.21,1.28-3.89,3.15-5.05,5.61
			c-1.16,2.46-1.74,5.42-1.74,8.89v3.95c0,3.34,0.6,6.18,1.81,8.54c1.21,2.35,2.96,4.14,5.26,5.36c2.3,1.22,5.07,1.82,8.32,1.82
			c2.18,0,4.36-0.46,6.52-1.37c2.16-0.91,4.11-2.2,5.85-3.87l-4.53-4.53c-1.08,1.01-2.31,1.8-3.68,2.37
			c-1.37,0.56-2.76,0.85-4.16,0.85c-2.82,0-4.99-0.78-6.52-2.33c-1.48-1.5-2.23-3.63-2.29-6.39h22.1v-2.3c0-3.88-0.55-7.2-1.64-9.97
			C418.82,227.09,417.24,224.97,415.17,223.5z M399.47,236.58c0.11-2.75,0.81-4.92,2.12-6.49c1.43-1.71,3.45-2.57,6.07-2.57
			c2.14,0,3.85,0.79,5.12,2.38c1.27,1.59,2.01,3.81,2.21,6.68H399.47z"/>
		<path class="st0" d="M447.24,221.31c-2.12,0-4.05,0.57-5.8,1.72c-1.39,0.92-2.56,2.15-3.53,3.68v-4.9h-6.9v35.09h6.9v-22.21
			c0-2.16,0.61-3.84,1.84-5.04c1.23-1.19,2.97-1.79,5.22-1.79c2.32,0,4.12,0.68,5.41,2.03c1.28,1.35,1.93,3.27,1.93,5.75v21.26h6.9
			V235.6c0-4.55-1.04-8.07-3.13-10.56C454,222.55,451.05,221.31,447.24,221.31z"/>
		<path class="st0" d="M477.5,211.61h-6.9v10.21h-3.62v6.22h3.62v19.74c0,3.06,0.66,5.38,1.98,6.95c1.32,1.57,3.4,2.35,6.24,2.35
			h3.99v-6.56h-3.31c-0.65,0-1.15-0.23-1.49-0.69c-0.34-0.46-0.51-1.12-0.51-1.98v-19.81h5.31v-6.22h-5.31V211.61z"/>
		<path class="st0" d="M517.62,239.8c-1.17-1.46-2.62-2.45-4.34-2.94c-1.72-0.5-3.81-0.82-6.27-0.98c-0.07-0.02-0.14-0.03-0.2-0.03
			c-0.07,0-0.13,0-0.2,0c-0.16-0.02-0.31-0.03-0.46-0.03c-0.15,0-0.29-0.01-0.42-0.03c-1.87-0.11-3.31-0.25-4.33-0.41
			c-1.01-0.16-1.85-0.47-2.52-0.95c-0.67-0.47-1-1.18-1-2.13c0-1.6,0.59-2.8,1.76-3.6c1.17-0.8,2.93-1.2,5.27-1.2
			c1.62,0,3.28,0.28,4.99,0.85c1.7,0.56,3.43,1.41,5.19,2.53l4.16-5.04c-1.4-1.01-2.85-1.85-4.36-2.52
			c-1.51-0.66-3.09-1.17-4.75-1.5c-1.66-0.34-3.4-0.51-5.22-0.51c-3.02,0-5.53,0.41-7.54,1.23c-2.01,0.82-3.52,2.06-4.53,3.7
			c-1.01,1.65-1.52,3.71-1.52,6.19c0,2.48,0.52,4.38,1.57,5.71c1.05,1.33,2.36,2.24,3.94,2.72c1.58,0.48,3.5,0.82,5.78,1
			c0.09,0,0.18,0.01,0.27,0.02c0.09,0.01,0.18,0.02,0.27,0.02c0.18,0.02,0.37,0.04,0.57,0.05c0.2,0.01,0.39,0.02,0.58,0.02
			c2.01,0.16,3.56,0.33,4.66,0.52c1.1,0.19,2.03,0.57,2.77,1.13c0.74,0.56,1.12,1.41,1.12,2.54c0,1.69-0.68,2.96-2.05,3.8
			c-1.36,0.85-3.41,1.27-6.13,1.27c-1.82,0-3.67-0.36-5.54-1.08c-1.87-0.72-3.75-1.8-5.64-3.24l-4.09,5.04
			c1.33,1.22,2.78,2.23,4.36,3.04c1.58,0.81,3.27,1.42,5.09,1.83c1.81,0.41,3.76,0.61,5.83,0.61c3.29,0,6.02-0.42,8.2-1.25
			c2.17-0.83,3.8-2.08,4.88-3.73c1.08-1.66,1.62-3.75,1.62-6.27C519.38,243.38,518.79,241.26,517.62,239.8z"/>
	</g>
</g>
</svg>
